<svg width="18" height="16" viewBox="0 0 18 16" fill="none" xmlns="http://www.w3.org/2000/svg">
<path d="M11.916 1.92819C12.0502 2.01972 12.1426 2.16082 12.1728 2.32044C12.2029 2.48006 12.1685 2.64514 12.0769 2.77935C11.9854 2.91356 11.8443 3.00591 11.6847 3.03609C11.5251 3.06627 11.36 3.03181 11.2258 2.94028C10.0959 2.17217 8.74146 1.8043 7.37824 1.89528C6.01503 1.98625 4.72148 2.53083 3.70367 3.44226C2.68587 4.35369 2.00237 5.57953 1.76207 6.92447C1.52177 8.26942 1.7385 9.6561 2.37772 10.8636C3.01694 12.0711 4.04189 13.0299 5.28926 13.5873C6.53662 14.1447 7.93466 14.2686 9.26062 13.9393C10.5866 13.61 11.7642 12.8463 12.6058 11.7701C13.4474 10.6939 13.9047 9.36694 13.9047 8.00069C13.9047 7.8384 13.9692 7.68277 14.0839 7.56801C14.1987 7.45326 14.3543 7.38879 14.5166 7.38879C14.6789 7.38879 14.8345 7.45326 14.9493 7.56801C15.064 7.68277 15.1285 7.8384 15.1285 8.00069C15.1283 9.64021 14.5795 11.2325 13.5694 12.5239C12.5593 13.8153 11.1461 14.7315 9.55483 15.1265C7.96362 15.5215 6.28597 15.3727 4.78918 14.7036C3.2924 14.0345 2.06259 12.8838 1.29569 11.4347C0.5288 9.98558 0.268941 8.32151 0.557521 6.70759C0.846101 5.09367 1.66652 3.62276 2.88805 2.52921C4.10959 1.43565 5.66198 0.782375 7.29787 0.673455C8.93376 0.564535 10.5591 1.00624 11.9148 1.92819" fill="black"/>
<path d="M11.1746 9.94107C11.107 9.98657 11.0309 10.0181 10.9509 10.0338C10.8709 10.0495 10.7886 10.049 10.7087 10.0325C10.6289 10.0159 10.5532 9.98355 10.4861 9.93731C10.4189 9.89108 10.3617 9.83189 10.3177 9.76323C10.2738 9.69457 10.244 9.61782 10.2301 9.53748C10.2162 9.45715 10.2186 9.37485 10.2369 9.29542C10.2553 9.216 10.2894 9.14104 10.3371 9.07496C10.3849 9.00888 10.4453 8.95301 10.515 8.91063L14.7762 6.18522C14.8439 6.13972 14.9199 6.1082 14.9999 6.0925C15.0799 6.07681 15.1623 6.07725 15.2421 6.09382C15.3219 6.11039 15.3976 6.14274 15.4648 6.18897C15.5319 6.23521 15.5892 6.29439 15.6331 6.36306C15.6771 6.43172 15.7069 6.50847 15.7207 6.5888C15.7346 6.66914 15.7323 6.75144 15.7139 6.83086C15.6955 6.91029 15.6615 6.98525 15.6137 7.05133C15.566 7.11741 15.5055 7.17328 15.4359 7.21566L11.1746 9.94107Z" fill="black"/>
<path d="M17.5109 10.5874C17.5717 10.7347 17.5726 10.8998 17.5135 11.0478C17.4544 11.1958 17.3399 11.3148 17.1944 11.3797C17.0489 11.4446 16.8838 11.4501 16.7342 11.3952C16.5847 11.3402 16.4625 11.2291 16.3936 11.0855L14.5468 6.94904C14.5141 6.87559 14.4961 6.79641 14.4939 6.71601C14.4917 6.63561 14.5054 6.55556 14.5341 6.48045C14.5629 6.40533 14.6061 6.33661 14.6614 6.27822C14.7168 6.21982 14.783 6.17289 14.8565 6.14011C14.9299 6.10732 15.0091 6.08932 15.0895 6.08714C15.1699 6.08496 15.2499 6.09863 15.3251 6.12738C15.4002 6.15613 15.4689 6.1994 15.5273 6.2547C15.5857 6.31001 15.6326 6.37628 15.6654 6.44973L17.5109 10.5874Z" fill="black"/>
</svg>
