<svg width="14" height="12" viewBox="0 0 14 12" fill="none" xmlns="http://www.w3.org/2000/svg">
<path d="M9.37501 1.03854C9.48468 1.11333 9.56014 1.22862 9.5848 1.35906C9.60946 1.48949 9.5813 1.62437 9.50651 1.73404C9.43172 1.84371 9.31642 1.91917 9.18599 1.94383C9.05556 1.96849 8.92068 1.94033 8.81101 1.86554C7.88775 1.2379 6.78099 0.937308 5.66708 1.01164C4.55316 1.08598 3.49616 1.53097 2.66449 2.27573C1.83281 3.02048 1.27431 4.02214 1.07795 5.12114C0.881598 6.22013 1.05869 7.35322 1.58102 8.33989C2.10334 9.32656 2.94085 10.11 3.96011 10.5655C4.97937 11.021 6.12174 11.1222 7.20522 10.8531C8.2887 10.584 9.25095 9.96006 9.93867 9.08064C10.6264 8.20122 11 7.11694 11 6.00054C11 5.86793 11.0527 5.74076 11.1465 5.64699C11.2402 5.55322 11.3674 5.50054 11.5 5.50054C11.6326 5.50054 11.7598 5.55322 11.8536 5.64699C11.9473 5.74076 12 5.86793 12 6.00054C11.9999 7.34023 11.5514 8.64135 10.726 9.69658C9.90065 10.7518 8.74586 11.5005 7.44563 11.8232C6.1454 12.146 4.77455 12.0244 3.55149 11.4777C2.32843 10.931 1.32352 9.99064 0.696865 8.80655C0.0702147 7.62245 -0.142123 6.26269 0.0936837 4.94391C0.32949 3.62514 0.999873 2.42322 1.99802 1.52964C2.99618 0.636073 4.26467 0.102262 5.6014 0.0132603C6.93814 -0.0757411 8.2662 0.285187 9.37401 1.03854" fill="black"/>
<path d="M8.76929 7.58551C8.71402 7.62269 8.65187 7.64845 8.5865 7.66128C8.52113 7.6741 8.45386 7.67374 8.38863 7.6602C8.3234 7.64666 8.26154 7.62023 8.20667 7.58245C8.15181 7.54467 8.10504 7.49631 8.06913 7.4402C8.03321 7.3841 8.00887 7.32138 7.99753 7.25574C7.98619 7.19009 7.98809 7.12284 8.0031 7.05794C8.01811 6.99304 8.04594 6.93179 8.08496 6.8778C8.12397 6.8238 8.17339 6.77815 8.23029 6.74351L11.7123 4.51651C11.7676 4.47933 11.8297 4.45358 11.8951 4.44075C11.9605 4.42793 12.0277 4.42829 12.093 4.44183C12.1582 4.45537 12.22 4.4818 12.2749 4.51958C12.3298 4.55736 12.3765 4.60572 12.4125 4.66183C12.4484 4.71793 12.4727 4.78065 12.4841 4.84629C12.4954 4.91194 12.4935 4.97918 12.4785 5.04409C12.4635 5.10899 12.4356 5.17024 12.3966 5.22423C12.3576 5.27823 12.3082 5.32388 12.2513 5.35851L8.76929 7.58551Z" fill="black"/>
<path d="M13.9479 8.1146C13.9975 8.23494 13.9983 8.36991 13.95 8.49081C13.9017 8.61171 13.8082 8.709 13.6893 8.76201C13.5704 8.81501 13.4355 8.81955 13.3133 8.77466C13.1911 8.72976 13.0912 8.63898 13.0349 8.5216L11.5259 5.1416C11.4991 5.08158 11.4844 5.01688 11.4826 4.95118C11.4808 4.88549 11.492 4.82008 11.5155 4.7587C11.539 4.69732 11.5743 4.64117 11.6195 4.59345C11.6647 4.54574 11.7189 4.50739 11.7789 4.4806C11.8389 4.45381 11.9036 4.4391 11.9693 4.43732C12.035 4.43553 12.1004 4.44671 12.1618 4.4702C12.2232 4.49369 12.2793 4.52905 12.327 4.57424C12.3747 4.61943 12.4131 4.67358 12.4399 4.7336L13.9479 8.1146Z" fill="black"/>
</svg>
